<svg id="visual" viewBox="0 0 960 300" width="960" height="300" xmlns="http://www.w3.org/2000/svg" xmlns:xlink="http://www.w3.org/1999/xlink" version="1.1"><rect x="0" y="0" width="960" height="300" fill="#fff"></rect><path d="M0 158L107 158L107 196L213 196L213 228L320 228L320 190L427 190L427 274L533 274L533 257L640 257L640 207L747 207L747 164L853 164L853 279L960 279L960 229L960 301L960 301L853 301L853 301L747 301L747 301L640 301L640 301L533 301L533 301L427 301L427 301L320 301L320 301L213 301L213 301L107 301L107 301L0 301Z" fill="#5ec57e" stroke-linecap="square" stroke-linejoin="miter"></path></svg>