<svg id="visual" viewBox="0 0 960 300" width="960" height="300" xmlns="http://www.w3.org/2000/svg" xmlns:xlink="http://www.w3.org/1999/xlink" version="1.1"><rect x="0" y="0" width="960" height="300" fill="#ecf8e5"></rect><path d="M0 174L107 174L107 273L213 273L213 176L320 176L320 197L427 197L427 246L533 246L533 227L640 227L640 257L747 257L747 159L853 159L853 183L960 183L960 138L960 301L960 301L853 301L853 301L747 301L747 301L640 301L640 301L533 301L533 301L427 301L427 301L320 301L320 301L213 301L213 301L107 301L107 301L0 301Z" fill="#fff" stroke-linecap="square" stroke-linejoin="miter"></path></svg>