<svg xmlns="http://www.w3.org/2000/svg" xmlns:xlink="http://www.w3.org/1999/xlink" width="1000" zoomAndPan="magnify" viewBox="0 0 750 749.999995" height="1000" preserveAspectRatio="xMidYMid meet" version="1.0"><rect x="-75" width="900" fill="#ffffff" y="-74.999999" height="899.999994" fill-opacity="1"/><rect x="-75" width="900" fill="#ffffff" y="-74.999999" height="899.999994" fill-opacity="1"/><path fill="#fafcfb" d="M 580.09375 322.617188 L 167.210938 322.617188 L 167.210938 94.085938 C 167.210938 77.695312 180.519531 64.386719 196.910156 64.386719 L 550.445312 64.386719 C 566.835938 64.386719 580.144531 77.695312 580.144531 94.085938 L 580.144531 322.617188 Z M 580.09375 322.617188 " fill-opacity="1" fill-rule="nonzero"/><path fill="#0f0f0f" d="M 580.09375 328.976562 L 167.210938 328.976562 C 163.6875 328.976562 160.851562 326.140625 160.851562 322.617188 L 160.851562 94.085938 C 160.851562 74.21875 176.996094 58.027344 196.910156 58.027344 L 550.445312 58.027344 C 570.308594 58.027344 586.503906 74.171875 586.503906 94.085938 L 586.503906 322.617188 C 586.457031 326.140625 583.617188 328.976562 580.09375 328.976562 Z M 173.570312 316.257812 L 573.734375 316.257812 L 573.734375 94.085938 C 573.734375 81.21875 563.265625 70.746094 550.398438 70.746094 L 196.910156 70.746094 C 184.039062 70.746094 173.570312 81.21875 173.570312 94.085938 Z M 173.570312 316.257812 " fill-opacity="1" fill-rule="nonzero"/><path fill="#35b276" d="M 550.398438 372.914062 L 196.910156 372.914062 C 180.519531 372.914062 167.210938 359.605469 167.210938 343.214844 L 167.210938 318.75 L 580.09375 318.75 L 580.09375 343.214844 C 580.09375 359.652344 566.789062 372.914062 550.398438 372.914062 Z M 550.398438 372.914062 " fill-opacity="1" fill-rule="nonzero"/><path fill="#191919" d="M 550.398438 379.273438 L 196.910156 379.273438 C 177.042969 379.273438 160.851562 363.128906 160.851562 343.214844 L 160.851562 312.390625 L 586.457031 312.390625 L 586.457031 343.214844 C 586.457031 363.128906 570.308594 379.273438 550.398438 379.273438 Z M 173.570312 325.160156 L 173.570312 343.261719 C 173.570312 356.128906 184.039062 366.601562 196.910156 366.601562 L 550.445312 366.601562 C 563.3125 366.601562 573.785156 356.128906 573.785156 343.261719 L 573.785156 325.160156 Z M 173.570312 325.160156 " fill-opacity="1" fill-rule="nonzero"/><path fill="#fafcfb" d="M 360.710938 342.628906 C 360.710938 343.480469 360.792969 344.320312 360.960938 345.15625 C 361.128906 345.992188 361.371094 346.800781 361.699219 347.589844 C 362.023438 348.375 362.425781 349.121094 362.898438 349.832031 C 363.371094 350.539062 363.90625 351.191406 364.507812 351.796875 C 365.109375 352.398438 365.765625 352.933594 366.472656 353.40625 C 367.183594 353.878906 367.929688 354.28125 368.714844 354.605469 C 369.503906 354.929688 370.3125 355.175781 371.148438 355.34375 C 371.984375 355.507812 372.824219 355.59375 373.675781 355.59375 C 374.527344 355.59375 375.371094 355.507812 376.207031 355.34375 C 377.042969 355.175781 377.851562 354.929688 378.640625 354.605469 C 379.425781 354.28125 380.171875 353.878906 380.878906 353.40625 C 381.589844 352.933594 382.242188 352.398438 382.84375 351.796875 C 383.445312 351.191406 383.984375 350.539062 384.457031 349.832031 C 384.929688 349.121094 385.328125 348.375 385.65625 347.589844 C 385.980469 346.800781 386.226562 345.992188 386.394531 345.15625 C 386.558594 344.320312 386.640625 343.480469 386.640625 342.628906 C 386.640625 341.777344 386.558594 340.933594 386.394531 340.097656 C 386.226562 339.261719 385.980469 338.453125 385.65625 337.664062 C 385.328125 336.878906 384.929688 336.132812 384.457031 335.425781 C 383.984375 334.714844 383.445312 334.0625 382.84375 333.460938 C 382.242188 332.855469 381.589844 332.320312 380.878906 331.847656 C 380.171875 331.375 379.425781 330.972656 378.640625 330.648438 C 377.851562 330.324219 377.042969 330.078125 376.207031 329.910156 C 375.371094 329.746094 374.527344 329.660156 373.675781 329.660156 C 372.824219 329.660156 371.984375 329.746094 371.148438 329.910156 C 370.3125 330.078125 369.503906 330.324219 368.714844 330.648438 C 367.929688 330.972656 367.183594 331.375 366.472656 331.847656 C 365.765625 332.320312 365.109375 332.855469 364.507812 333.460938 C 363.90625 334.0625 363.371094 334.714844 362.898438 335.425781 C 362.425781 336.132812 362.023438 336.878906 361.699219 337.664062 C 361.371094 338.453125 361.128906 339.261719 360.960938 340.097656 C 360.792969 340.933594 360.710938 341.777344 360.710938 342.628906 Z M 360.710938 342.628906 " fill-opacity="1" fill-rule="nonzero"/><path fill="#fafcfb" d="M 243.339844 172.902344 C 243.339844 174.546875 243.417969 176.183594 243.582031 177.820312 C 243.742188 179.453125 243.980469 181.078125 244.300781 182.6875 C 244.621094 184.296875 245.023438 185.890625 245.5 187.460938 C 245.976562 189.03125 246.527344 190.578125 247.15625 192.09375 C 247.785156 193.613281 248.484375 195.09375 249.261719 196.542969 C 250.035156 197.992188 250.878906 199.398438 251.789062 200.765625 C 252.703125 202.128906 253.679688 203.449219 254.722656 204.71875 C 255.765625 205.988281 256.867188 207.203125 258.027344 208.363281 C 259.1875 209.527344 260.402344 210.628906 261.671875 211.667969 C 262.941406 212.710938 264.261719 213.6875 265.625 214.601562 C 266.992188 215.511719 268.398438 216.355469 269.847656 217.132812 C 271.296875 217.90625 272.777344 218.605469 274.296875 219.234375 C 275.8125 219.863281 277.359375 220.417969 278.929688 220.894531 C 280.503906 221.371094 282.09375 221.769531 283.703125 222.089844 C 285.316406 222.410156 286.9375 222.648438 288.574219 222.8125 C 290.207031 222.972656 291.84375 223.050781 293.488281 223.050781 C 295.128906 223.050781 296.769531 222.972656 298.402344 222.8125 C 300.039062 222.648438 301.660156 222.410156 303.269531 222.089844 C 304.882812 221.769531 306.472656 221.371094 308.046875 220.894531 C 309.617188 220.417969 311.160156 219.863281 312.679688 219.234375 C 314.195312 218.605469 315.679688 217.90625 317.128906 217.132812 C 318.578125 216.355469 319.984375 215.511719 321.347656 214.601562 C 322.714844 213.6875 324.03125 212.710938 325.300781 211.667969 C 326.570312 210.628906 327.785156 209.527344 328.949219 208.363281 C 330.109375 207.203125 331.210938 205.988281 332.253906 204.71875 C 333.296875 203.449219 334.273438 202.128906 335.183594 200.765625 C 336.097656 199.398438 336.941406 197.992188 337.714844 196.542969 C 338.488281 195.09375 339.191406 193.613281 339.820312 192.09375 C 340.449219 190.578125 341 189.03125 341.476562 187.460938 C 341.953125 185.890625 342.351562 184.296875 342.671875 182.6875 C 342.992188 181.078125 343.234375 179.453125 343.394531 177.820312 C 343.554688 176.183594 343.636719 174.546875 343.636719 172.902344 C 343.636719 171.261719 343.554688 169.621094 343.394531 167.988281 C 343.234375 166.355469 342.992188 164.730469 342.671875 163.121094 C 342.351562 161.507812 341.953125 159.917969 341.476562 158.347656 C 341 156.773438 340.449219 155.230469 339.820312 153.710938 C 339.191406 152.195312 338.488281 150.710938 337.714844 149.265625 C 336.941406 147.816406 336.097656 146.40625 335.183594 145.042969 C 334.273438 143.675781 333.296875 142.359375 332.253906 141.089844 C 331.210938 139.820312 330.109375 138.605469 328.949219 137.441406 C 327.785156 136.28125 326.570312 135.179688 325.300781 134.136719 C 324.03125 133.097656 322.714844 132.117188 321.347656 131.207031 C 319.984375 130.292969 318.578125 129.449219 317.128906 128.675781 C 315.679688 127.902344 314.195312 127.199219 312.679688 126.570312 C 311.160156 125.945312 309.617188 125.390625 308.046875 124.914062 C 306.472656 124.4375 304.882812 124.039062 303.269531 123.71875 C 301.660156 123.398438 300.039062 123.15625 298.402344 122.996094 C 296.769531 122.835938 295.128906 122.753906 293.488281 122.753906 C 291.84375 122.753906 290.207031 122.835938 288.574219 122.996094 C 286.9375 123.15625 285.316406 123.398438 283.703125 123.71875 C 282.09375 124.039062 280.503906 124.4375 278.929688 124.914062 C 277.359375 125.390625 275.8125 125.945312 274.296875 126.570312 C 272.777344 127.199219 271.296875 127.902344 269.847656 128.675781 C 268.398438 129.449219 266.992188 130.292969 265.625 131.207031 C 264.261719 132.117188 262.941406 133.097656 261.671875 134.136719 C 260.402344 135.179688 259.1875 136.28125 258.027344 137.441406 C 256.867188 138.605469 255.765625 139.820312 254.722656 141.089844 C 253.679688 142.359375 252.703125 143.675781 251.789062 145.042969 C 250.878906 146.40625 250.035156 147.816406 249.261719 149.265625 C 248.484375 150.710938 247.785156 152.195312 247.15625 153.710938 C 246.527344 155.230469 245.976562 156.773438 245.5 158.347656 C 245.023438 159.917969 244.621094 161.507812 244.300781 163.121094 C 243.980469 164.730469 243.742188 166.355469 243.582031 167.988281 C 243.417969 169.621094 243.339844 171.261719 243.339844 172.902344 Z M 243.339844 172.902344 " fill-opacity="1" fill-rule="nonzero"/><path fill="#c9d3cd" d="M 293.488281 229.414062 C 262.320312 229.414062 236.980469 204.070312 236.980469 172.902344 C 236.980469 141.738281 262.320312 116.394531 293.488281 116.394531 C 324.652344 116.394531 349.996094 141.738281 349.996094 172.902344 C 349.996094 204.070312 324.703125 229.414062 293.488281 229.414062 Z M 293.488281 129.066406 C 269.320312 129.066406 249.699219 148.734375 249.699219 172.855469 C 249.699219 196.976562 269.367188 216.644531 293.488281 216.644531 C 317.609375 216.644531 337.277344 196.976562 337.277344 172.855469 C 337.277344 148.734375 317.65625 129.066406 293.488281 129.066406 Z M 293.488281 129.066406 " fill-opacity="1" fill-rule="nonzero"/><path fill="#0f0f0f" d="M 279.640625 172.902344 C 279.640625 173.8125 279.730469 174.714844 279.90625 175.605469 C 280.085938 176.496094 280.347656 177.363281 280.695312 178.203125 C 281.042969 179.042969 281.46875 179.839844 281.976562 180.597656 C 282.480469 181.351562 283.054688 182.050781 283.695312 182.695312 C 284.339844 183.335938 285.039062 183.910156 285.796875 184.417969 C 286.550781 184.921875 287.347656 185.347656 288.1875 185.695312 C 289.027344 186.042969 289.894531 186.304688 290.785156 186.484375 C 291.679688 186.660156 292.578125 186.75 293.488281 186.75 C 294.398438 186.75 295.296875 186.660156 296.1875 186.484375 C 297.082031 186.304688 297.945312 186.042969 298.785156 185.695312 C 299.625 185.347656 300.425781 184.921875 301.179688 184.417969 C 301.9375 183.910156 302.636719 183.335938 303.277344 182.695312 C 303.921875 182.050781 304.496094 181.351562 305 180.597656 C 305.503906 179.839844 305.933594 179.042969 306.28125 178.203125 C 306.628906 177.363281 306.890625 176.496094 307.066406 175.605469 C 307.246094 174.714844 307.332031 173.8125 307.332031 172.902344 C 307.332031 171.996094 307.246094 171.09375 307.066406 170.203125 C 306.890625 169.3125 306.628906 168.445312 306.28125 167.605469 C 305.933594 166.765625 305.503906 165.96875 305 165.210938 C 304.496094 164.457031 303.921875 163.757812 303.277344 163.113281 C 302.636719 162.46875 301.9375 161.894531 301.179688 161.390625 C 300.425781 160.886719 299.625 160.460938 298.785156 160.113281 C 297.945312 159.765625 297.082031 159.5 296.1875 159.324219 C 295.296875 159.144531 294.398438 159.058594 293.488281 159.058594 C 292.578125 159.058594 291.679688 159.144531 290.785156 159.324219 C 289.894531 159.5 289.027344 159.765625 288.1875 160.113281 C 287.347656 160.460938 286.550781 160.886719 285.796875 161.390625 C 285.039062 161.894531 284.339844 162.46875 283.695312 163.113281 C 283.054688 163.757812 282.480469 164.457031 281.976562 165.210938 C 281.46875 165.96875 281.042969 166.765625 280.695312 167.605469 C 280.347656 168.445312 280.085938 169.3125 279.90625 170.203125 C 279.730469 171.09375 279.640625 171.996094 279.640625 172.902344 Z M 279.640625 172.902344 " fill-opacity="1" fill-rule="nonzero"/><path fill="#fafcfb" d="M 403.667969 172.902344 C 403.667969 174.546875 403.75 176.183594 403.910156 177.820312 C 404.070312 179.453125 404.3125 181.078125 404.632812 182.6875 C 404.953125 184.296875 405.351562 185.890625 405.828125 187.460938 C 406.304688 189.03125 406.859375 190.578125 407.484375 192.09375 C 408.113281 193.613281 408.816406 195.09375 409.589844 196.542969 C 410.363281 197.992188 411.207031 199.398438 412.121094 200.765625 C 413.03125 202.128906 414.011719 203.449219 415.050781 204.71875 C 416.09375 205.988281 417.195312 207.203125 418.355469 208.363281 C 419.519531 209.527344 420.734375 210.628906 422.003906 211.667969 C 423.273438 212.710938 424.589844 213.6875 425.957031 214.601562 C 427.320312 215.511719 428.730469 216.355469 430.175781 217.132812 C 431.625 217.90625 433.109375 218.605469 434.625 219.234375 C 436.144531 219.863281 437.6875 220.417969 439.261719 220.894531 C 440.832031 221.371094 442.421875 221.769531 444.035156 222.089844 C 445.644531 222.410156 447.269531 222.648438 448.902344 222.8125 C 450.535156 222.972656 452.175781 223.050781 453.816406 223.050781 C 455.460938 223.050781 457.097656 222.972656 458.734375 222.8125 C 460.367188 222.648438 461.992188 222.410156 463.601562 222.089844 C 465.210938 221.769531 466.804688 221.371094 468.375 220.894531 C 469.945312 220.417969 471.492188 219.863281 473.007812 219.234375 C 474.527344 218.605469 476.007812 217.90625 477.457031 217.132812 C 478.90625 216.355469 480.3125 215.511719 481.679688 214.601562 C 483.042969 213.6875 484.363281 212.710938 485.632812 211.667969 C 486.902344 210.628906 488.117188 209.527344 489.277344 208.363281 C 490.441406 207.203125 491.542969 205.988281 492.582031 204.71875 C 493.625 203.449219 494.601562 202.128906 495.515625 200.765625 C 496.425781 199.398438 497.269531 197.992188 498.046875 196.542969 C 498.820312 195.09375 499.519531 193.613281 500.148438 192.09375 C 500.777344 190.578125 501.332031 189.03125 501.808594 187.460938 C 502.285156 185.890625 502.683594 184.296875 503.003906 182.6875 C 503.324219 181.078125 503.5625 179.453125 503.726562 177.820312 C 503.886719 176.183594 503.964844 174.546875 503.964844 172.902344 C 503.964844 171.261719 503.886719 169.621094 503.726562 167.988281 C 503.5625 166.355469 503.324219 164.730469 503.003906 163.121094 C 502.683594 161.507812 502.285156 159.917969 501.808594 158.347656 C 501.332031 156.773438 500.777344 155.230469 500.148438 153.710938 C 499.519531 152.195312 498.820312 150.710938 498.046875 149.265625 C 497.269531 147.816406 496.425781 146.40625 495.515625 145.042969 C 494.601562 143.675781 493.625 142.359375 492.582031 141.089844 C 491.542969 139.820312 490.441406 138.605469 489.277344 137.441406 C 488.117188 136.28125 486.902344 135.179688 485.632812 134.136719 C 484.363281 133.097656 483.042969 132.117188 481.679688 131.207031 C 480.3125 130.292969 478.90625 129.449219 477.457031 128.675781 C 476.007812 127.902344 474.527344 127.199219 473.007812 126.570312 C 471.492188 125.945312 469.945312 125.390625 468.375 124.914062 C 466.804688 124.4375 465.210938 124.039062 463.601562 123.71875 C 461.992188 123.398438 460.367188 123.15625 458.734375 122.996094 C 457.097656 122.835938 455.460938 122.753906 453.816406 122.753906 C 452.175781 122.753906 450.535156 122.835938 448.902344 122.996094 C 447.269531 123.15625 445.644531 123.398438 444.035156 123.71875 C 442.421875 124.039062 440.832031 124.4375 439.261719 124.914062 C 437.6875 125.390625 436.144531 125.945312 434.625 126.570312 C 433.109375 127.199219 431.625 127.902344 430.175781 128.675781 C 428.730469 129.449219 427.320312 130.292969 425.957031 131.207031 C 424.589844 132.117188 423.273438 133.097656 422.003906 134.136719 C 420.734375 135.179688 419.519531 136.28125 418.355469 137.441406 C 417.195312 138.605469 416.09375 139.820312 415.050781 141.089844 C 414.011719 142.359375 413.03125 143.675781 412.121094 145.042969 C 411.207031 146.40625 410.363281 147.816406 409.589844 149.265625 C 408.816406 150.710938 408.113281 152.195312 407.484375 153.710938 C 406.859375 155.230469 406.304688 156.773438 405.828125 158.347656 C 405.351562 159.917969 404.953125 161.507812 404.632812 163.121094 C 404.3125 164.730469 404.070312 166.355469 403.910156 167.988281 C 403.75 169.621094 403.667969 171.261719 403.667969 172.902344 Z M 403.667969 172.902344 " fill-opacity="1" fill-rule="nonzero"/><path fill="#c9d3cd" d="M 453.816406 229.414062 C 422.652344 229.414062 397.308594 204.070312 397.308594 172.902344 C 397.308594 141.738281 422.652344 116.394531 453.816406 116.394531 C 484.984375 116.394531 510.328125 141.738281 510.328125 172.902344 C 510.328125 204.070312 484.984375 229.414062 453.816406 229.414062 Z M 453.816406 129.066406 C 429.648438 129.066406 410.027344 148.734375 410.027344 172.855469 C 410.027344 196.976562 429.695312 216.644531 453.816406 216.644531 C 477.9375 216.644531 497.605469 196.976562 497.605469 172.855469 C 497.605469 148.734375 477.9375 129.066406 453.816406 129.066406 Z M 453.816406 129.066406 " fill-opacity="1" fill-rule="nonzero"/><path fill="#0f0f0f" d="M 439.972656 172.902344 C 439.972656 173.8125 440.058594 174.714844 440.238281 175.605469 C 440.414062 176.496094 440.675781 177.363281 441.027344 178.203125 C 441.375 179.042969 441.800781 179.839844 442.304688 180.597656 C 442.808594 181.351562 443.382812 182.050781 444.027344 182.695312 C 444.667969 183.335938 445.371094 183.910156 446.125 184.417969 C 446.882812 184.921875 447.679688 185.347656 448.519531 185.695312 C 449.359375 186.042969 450.226562 186.304688 451.117188 186.484375 C 452.007812 186.660156 452.910156 186.75 453.816406 186.75 C 454.726562 186.75 455.628906 186.660156 456.519531 186.484375 C 457.410156 186.304688 458.277344 186.042969 459.117188 185.695312 C 459.957031 185.347656 460.753906 184.921875 461.511719 184.417969 C 462.265625 183.910156 462.964844 183.335938 463.609375 182.695312 C 464.25 182.050781 464.824219 181.351562 465.328125 180.597656 C 465.835938 179.839844 466.261719 179.042969 466.609375 178.203125 C 466.957031 177.363281 467.21875 176.496094 467.398438 175.605469 C 467.574219 174.714844 467.664062 173.8125 467.664062 172.902344 C 467.664062 171.996094 467.574219 171.09375 467.398438 170.203125 C 467.21875 169.3125 466.957031 168.445312 466.609375 167.605469 C 466.261719 166.765625 465.835938 165.96875 465.328125 165.210938 C 464.824219 164.457031 464.25 163.757812 463.609375 163.113281 C 462.964844 162.46875 462.265625 161.894531 461.511719 161.390625 C 460.753906 160.886719 459.957031 160.460938 459.117188 160.113281 C 458.277344 159.765625 457.410156 159.5 456.519531 159.324219 C 455.628906 159.144531 454.726562 159.058594 453.816406 159.058594 C 452.910156 159.058594 452.007812 159.144531 451.117188 159.324219 C 450.226562 159.5 449.359375 159.765625 448.519531 160.113281 C 447.679688 160.460938 446.882812 160.886719 446.125 161.390625 C 445.371094 161.894531 444.667969 162.46875 444.027344 163.113281 C 443.382812 163.757812 442.808594 164.457031 442.304688 165.210938 C 441.800781 165.96875 441.375 166.765625 441.027344 167.605469 C 440.675781 168.445312 440.414062 169.3125 440.238281 170.203125 C 440.058594 171.09375 439.972656 171.996094 439.972656 172.902344 Z M 439.972656 172.902344 " fill-opacity="1" fill-rule="nonzero"/><path fill="#fafcfb" d="M 398.875 227.796875 C 398.875 241.644531 387.523438 252.996094 373.675781 252.996094 C 359.832031 252.996094 348.480469 241.644531 348.480469 227.796875 " fill-opacity="1" fill-rule="nonzero"/><path fill="#141414" d="M 373.675781 259.40625 C 356.257812 259.40625 342.121094 245.214844 342.121094 227.847656 C 342.121094 224.324219 344.957031 221.488281 348.480469 221.488281 C 352.003906 221.488281 354.839844 224.324219 354.839844 227.847656 C 354.839844 238.269531 363.304688 246.683594 373.675781 246.683594 C 384.097656 246.683594 392.511719 238.21875 392.511719 227.847656 C 392.511719 224.324219 395.351562 221.488281 398.875 221.488281 C 402.398438 221.488281 405.234375 224.324219 405.234375 227.847656 C 405.234375 245.214844 391.046875 259.40625 373.675781 259.40625 Z M 373.675781 259.40625 " fill-opacity="1" fill-rule="nonzero"/><path fill="#fafcfb" d="M 331.699219 372.914062 L 415.605469 372.914062 L 415.605469 416.75 L 331.699219 416.75 Z M 331.699219 372.914062 " fill-opacity="1" fill-rule="nonzero"/><path fill="#141414" d="M 415.605469 423.109375 L 331.699219 423.109375 C 328.175781 423.109375 325.339844 420.273438 325.339844 416.75 L 325.339844 372.914062 C 325.339844 369.390625 328.175781 366.550781 331.699219 366.550781 L 415.605469 366.550781 C 419.128906 366.550781 421.96875 369.390625 421.96875 372.914062 L 421.96875 416.75 C 421.96875 420.273438 419.128906 423.109375 415.605469 423.109375 Z M 338.058594 410.390625 L 409.246094 410.390625 L 409.246094 379.273438 L 338.058594 379.273438 Z M 338.058594 410.390625 " fill-opacity="1" fill-rule="nonzero"/><path fill="#fafcfb" d="M 450.929688 439.792969 L 296.375 439.792969 C 287.175781 439.792969 279.640625 432.257812 279.640625 423.0625 C 279.640625 413.863281 287.175781 406.328125 296.375 406.328125 L 450.882812 406.328125 C 460.078125 406.328125 467.613281 413.863281 467.613281 423.0625 C 467.613281 432.308594 460.128906 439.792969 450.929688 439.792969 Z M 450.929688 439.792969 " fill-opacity="1" fill-rule="nonzero"/><path fill="#141414" d="M 450.929688 446.152344 L 296.375 446.152344 C 283.652344 446.152344 273.28125 435.78125 273.28125 423.0625 C 273.28125 410.339844 283.652344 399.96875 296.375 399.96875 L 450.882812 399.96875 C 463.601562 399.96875 473.976562 410.339844 473.976562 423.0625 C 473.976562 435.78125 463.652344 446.152344 450.929688 446.152344 Z M 296.375 412.738281 C 290.648438 412.738281 286.003906 417.386719 286.003906 423.109375 C 286.003906 428.835938 290.648438 433.484375 296.375 433.484375 L 450.882812 433.484375 C 456.605469 433.484375 461.253906 428.835938 461.253906 423.109375 C 461.253906 417.386719 456.605469 412.738281 450.882812 412.738281 Z M 296.375 412.738281 " fill-opacity="1" fill-rule="nonzero"/><path fill="#964b00" d="M 460.820312 594.589844 L 289.179688 594.589844 L 294.628906 567.703125 L 455.371094 567.703125 L 460.820312 594.589844 " fill-opacity="1" fill-rule="nonzero"/><path fill="#964b00" d="M 520.226562 712.621094 L 484.765625 712.621094 L 460.820312 594.589844 L 455.371094 567.703125 L 447.796875 530.347656 L 442.75 505.46875 L 478.210938 505.46875 L 483.257812 530.347656 L 520.226562 712.621094 " fill-opacity="1" fill-rule="nonzero"/><path fill="#2c362b" d="M 455.371094 567.703125 L 439.039062 567.703125 L 444.492188 594.589844 L 460.820312 594.589844 L 455.371094 567.703125 " fill-opacity="1" fill-rule="nonzero"/><path fill="#964b00" d="M 307.25 505.46875 L 302.203125 530.347656 L 294.628906 567.703125 L 289.179688 594.589844 L 265.234375 712.621094 L 229.773438 712.621094 L 266.742188 530.347656 L 271.789062 505.46875 L 307.25 505.46875 " fill-opacity="1" fill-rule="nonzero"/><path fill="#964b00" d="M 513.046875 452.539062 L 513.046875 505.460938 L 236.945312 505.460938 L 236.945312 452.539062 C 236.945312 444.144531 243.75 437.339844 252.144531 437.339844 L 497.847656 437.339844 C 506.242188 437.339844 513.046875 444.144531 513.046875 452.539062 Z M 513.046875 452.539062 " fill-opacity="1" fill-rule="nonzero"/><path fill="#2c362b" d="M 307.25 505.46875 L 271.789062 505.46875 L 266.742188 530.347656 L 302.203125 530.347656 L 307.25 505.46875 " fill-opacity="1" fill-rule="nonzero"/><path fill="#2c362b" d="M 478.210938 505.46875 L 442.75 505.46875 L 447.796875 530.347656 L 483.257812 530.347656 L 478.210938 505.46875 " fill-opacity="1" fill-rule="nonzero"/><path fill="#ffffff" d="M 478.832031 457.667969 L 271.042969 457.667969 C 268.40625 457.667969 266.269531 455.53125 266.269531 452.894531 C 266.269531 450.257812 268.40625 448.121094 271.042969 448.121094 L 478.832031 448.121094 C 481.46875 448.121094 483.605469 450.257812 483.605469 452.894531 C 483.605469 455.53125 481.46875 457.667969 478.832031 457.667969 Z M 478.832031 457.667969 " fill-opacity="1" fill-rule="nonzero"/><path fill="#ffffff" d="M 497.496094 457.664062 C 497.1875 457.664062 496.867188 457.640625 496.558594 457.578125 C 496.257812 457.511719 495.953125 457.417969 495.667969 457.296875 C 495.382812 457.179688 495.101562 457.035156 494.847656 456.859375 C 494.585938 456.683594 494.339844 456.488281 494.117188 456.273438 C 493.902344 456.050781 493.703125 455.800781 493.527344 455.539062 C 493.351562 455.285156 493.210938 455.007812 493.089844 454.71875 C 492.96875 454.433594 492.875 454.132812 492.8125 453.828125 C 492.753906 453.519531 492.722656 453.207031 492.722656 452.890625 C 492.722656 452.578125 492.753906 452.269531 492.8125 451.960938 C 492.875 451.65625 492.96875 451.355469 493.089844 451.066406 C 493.210938 450.78125 493.351562 450.503906 493.527344 450.242188 C 493.703125 449.976562 493.902344 449.738281 494.117188 449.515625 C 494.339844 449.292969 494.585938 449.09375 494.847656 448.929688 C 495.101562 448.753906 495.382812 448.601562 495.667969 448.480469 C 495.953125 448.363281 496.257812 448.277344 496.558594 448.210938 C 497.179688 448.09375 497.816406 448.09375 498.429688 448.210938 C 498.730469 448.277344 499.03125 448.363281 499.320312 448.480469 C 499.605469 448.601562 499.882812 448.753906 500.148438 448.929688 C 500.410156 449.09375 500.648438 449.292969 500.871094 449.515625 C 501.09375 449.738281 501.292969 449.976562 501.46875 450.242188 C 501.632812 450.503906 501.785156 450.78125 501.90625 451.066406 C 502.023438 451.355469 502.113281 451.65625 502.175781 451.960938 C 502.238281 452.269531 502.269531 452.578125 502.269531 452.890625 C 502.269531 454.148438 501.761719 455.378906 500.871094 456.273438 C 500.648438 456.488281 500.410156 456.683594 500.148438 456.859375 C 499.882812 457.035156 499.605469 457.179688 499.320312 457.296875 C 499.03125 457.417969 498.730469 457.511719 498.429688 457.578125 C 498.117188 457.640625 497.808594 457.664062 497.496094 457.664062 Z M 497.496094 457.664062 " fill-opacity="1" fill-rule="nonzero"/><path fill="#ffffff" d="M 470.113281 548.539062 C 469.792969 548.539062 469.484375 548.507812 469.171875 548.445312 C 468.871094 548.382812 468.570312 548.292969 468.28125 548.175781 C 467.996094 548.054688 467.71875 547.902344 467.453125 547.738281 C 467.191406 547.5625 466.953125 547.363281 466.730469 547.140625 C 466.515625 546.925781 466.308594 546.679688 466.140625 546.417969 C 465.964844 546.152344 465.816406 545.882812 465.695312 545.589844 C 465.578125 545.300781 465.488281 545 465.425781 544.699219 C 465.363281 544.394531 465.332031 544.078125 465.332031 543.765625 C 465.332031 543.457031 465.363281 543.136719 465.425781 542.835938 C 465.488281 542.527344 465.578125 542.230469 465.695312 541.945312 C 465.816406 541.652344 465.964844 541.371094 466.140625 541.117188 C 466.308594 540.855469 466.515625 540.609375 466.730469 540.394531 C 466.953125 540.171875 467.191406 539.972656 467.453125 539.796875 C 467.71875 539.621094 467.996094 539.480469 468.28125 539.359375 C 468.570312 539.238281 468.871094 539.144531 469.171875 539.089844 C 469.792969 538.960938 470.421875 538.960938 471.042969 539.089844 C 471.34375 539.144531 471.648438 539.238281 471.933594 539.359375 C 472.21875 539.480469 472.5 539.621094 472.753906 539.796875 C 473.015625 539.972656 473.261719 540.171875 473.484375 540.394531 C 473.699219 540.609375 473.898438 540.855469 474.074219 541.117188 C 474.25 541.371094 474.390625 541.652344 474.511719 541.945312 C 474.632812 542.230469 474.726562 542.527344 474.789062 542.835938 C 474.847656 543.136719 474.878906 543.457031 474.878906 543.765625 C 474.878906 544.078125 474.847656 544.394531 474.789062 544.699219 C 474.726562 545 474.632812 545.300781 474.511719 545.589844 C 474.390625 545.882812 474.25 546.152344 474.074219 546.417969 C 473.898438 546.679688 473.699219 546.925781 473.484375 547.140625 C 473.261719 547.363281 473.015625 547.5625 472.753906 547.738281 C 472.5 547.902344 472.21875 548.054688 471.933594 548.175781 C 471.648438 548.292969 471.34375 548.382812 471.042969 548.445312 C 470.734375 548.507812 470.421875 548.539062 470.113281 548.539062 Z M 470.113281 548.539062 " fill-opacity="1" fill-rule="nonzero"/><path fill="#ffffff" d="M 498.902344 690.53125 C 496.679688 690.53125 494.6875 688.96875 494.226562 686.703125 L 468.851562 561.601562 C 468.328125 559.019531 470 556.5 472.582031 555.972656 C 475.164062 555.449219 477.6875 557.121094 478.210938 559.703125 L 503.585938 684.804688 C 504.109375 687.390625 502.441406 689.910156 499.855469 690.433594 C 499.535156 690.5 499.21875 690.53125 498.902344 690.53125 Z M 498.902344 690.53125 " fill-opacity="1" fill-rule="nonzero"/><path fill="#141212" d="M 524.90625 711.671875 L 484.046875 510.234375 L 513.046875 510.234375 C 515.683594 510.234375 517.820312 508.097656 517.820312 505.460938 L 517.820312 452.539062 C 517.820312 441.527344 508.863281 432.566406 497.847656 432.566406 L 252.144531 432.566406 C 241.128906 432.566406 232.171875 441.527344 232.171875 452.539062 L 232.171875 505.460938 C 232.171875 508.097656 234.308594 510.234375 236.945312 510.234375 L 265.953125 510.234375 L 225.09375 711.671875 C 224.8125 713.074219 225.171875 714.53125 226.078125 715.640625 C 226.984375 716.75 228.339844 717.394531 229.773438 717.394531 L 265.234375 717.394531 C 267.503906 717.394531 269.460938 715.792969 269.914062 713.570312 L 293.082031 599.363281 L 456.917969 599.363281 L 480.085938 713.570312 C 480.535156 715.792969 482.492188 717.394531 484.765625 717.394531 L 520.222656 717.394531 C 521.65625 717.394531 523.015625 716.75 523.921875 715.640625 C 524.828125 714.53125 525.1875 713.074219 524.90625 711.671875 Z M 241.71875 452.539062 C 241.71875 446.789062 246.394531 442.113281 252.144531 442.113281 L 497.847656 442.113281 C 503.597656 442.113281 508.273438 446.789062 508.273438 452.539062 L 508.273438 500.6875 L 241.71875 500.6875 Z M 438.84375 510.234375 L 449.53125 562.929688 L 300.46875 562.929688 L 311.15625 510.234375 Z M 261.332031 707.847656 L 235.613281 707.847656 L 275.691406 510.242188 L 301.414062 510.242188 Z M 295.019531 589.816406 L 298.53125 572.480469 L 451.46875 572.480469 L 454.980469 589.816406 Z M 488.667969 707.847656 L 448.585938 510.242188 L 474.304688 510.242188 L 514.386719 707.847656 Z M 488.667969 707.847656 " fill-opacity="1" fill-rule="nonzero"/></svg>