<!DOCTYPE svg PUBLIC "-//W3C//DTD SVG 1.1//EN" "http://www.w3.org/Graphics/SVG/1.1/DTD/svg11.dtd">
<!-- Uploaded to: SVG Repo, www.svgrepo.com, Transformed by: SVG Repo Mixer Tools -->
<svg width="800px" height="800px" viewBox="0 0 64 64" xmlns="http://www.w3.org/2000/svg" fill="#000000">
<g id="SVGRepo_bgCarrier" stroke-width="0"/>
<g id="SVGRepo_tracerCarrier" stroke-linecap="round" stroke-linejoin="round"/>
<g id="SVGRepo_iconCarrier"> <defs> <style>.cls-1{fill:#964B00;}.cls-2{fill:#362d2b;}.cls-3{fill:#964B00;}.cls-4{fill:#e9f5d6;}.cls-5{fill:#252b48;}</style> </defs> <g id="Chair"> <path class="cls-1" d="M16.08,18.57,8.41,47.19a3.32,3.32,0,0,0,6.42,1.72L23,18.56l-3.44-2.31Z" id="path7708-7"/> <path class="cls-1" d="M41,18.56l8.13,30.35a3.32,3.32,0,1,0,6.42-1.72L47.92,18.57l-3.44-2.32Z" id="path7702-2"/> <path class="cls-1" d="M28.68,18.56V50a3.32,3.32,0,1,0,6.64,0V18.56L32,16.25Z" id="path7250-2"/> <path class="cls-2" d="M19.52,16.25l-3.44,2.31-1.15,4.3h6.88L23,18.56Zm12.48,0-3.32,2.31v4.3h6.64v-4.3Zm12.48,0L41,18.56l1.15,4.3h6.88l-1.15-4.3Z" id="rect272238"/> <path class="cls-3" d="M11.93,10.7H52.07a3.93,3.93,0,0,1,0,7.86H11.93a3.93,3.93,0,0,1,0-7.86Z" id="rect99147-9-2"/> <path class="cls-4" d="M46.07,10.7a3.93,3.93,0,0,1,0,7.86h6a3.93,3.93,0,1,0,0-7.86Z" id="path276922"/> <path class="cls-5" d="M57,14.63A4.93,4.93,0,0,0,52.07,9.7H11.93a4.93,4.93,0,0,0,0,9.86h2.85L7.44,46.94a4.32,4.32,0,1,0,8.35,2.23l7.94-29.61h3.95V50a4.32,4.32,0,1,0,8.64,0V19.56h4l7.94,29.61a4.32,4.32,0,1,0,8.34-2.24L49.22,19.56h2.85A4.93,4.93,0,0,0,57,14.63Zm-48,0a2.93,2.93,0,0,1,2.93-2.93H52.07a2.93,2.93,0,0,1,0,5.86H11.93A2.93,2.93,0,0,1,9,14.63Zm4.86,34a2.32,2.32,0,1,1-4.48-1.2l7.47-27.89h4.81ZM34.32,50a2.32,2.32,0,1,1-4.64,0V19.56h4.64Zm20.3-2.53a2.32,2.32,0,0,1-4.48,1.21l-7.8-29.1h4.81Z"/> </g> </g>
</svg>